<svg id="Layer_1" data-name="Layer 1" xmlns="http://www.w3.org/2000/svg" viewBox="0 0 589.68 91.08"><defs><style>.cls-1{font-size:72px;font-family:Anton-Regular, Anton;}.cls-1,.cls-2{fill:#fff;}</style></defs><title>wt-inverselogo</title><text class="cls-1" transform="translate(48.04 67.63)"><tspan xml:space="preserve">   Web Te   plates</tspan></text><path class="cls-2" d="M299.94,69.87c.62-4.54,1.45-9,2.37-13.46s1.94-8.85,3-13.23c.54-2.2,1.13-4.37,1.69-6.56l1.79-6.52,1.89-6.49,2-6.46,3.09-10.08L322,16c1.6,2.28,3.16,4.58,4.74,6.88l4.62,7-9.45.42,2.43-4.47c.81-1.49,1.6-3,2.44-4.47l2.5-4.44c.82-1.48,1.69-2.94,2.54-4.41l6.35-11,3.09,12c1.06,4.09,2,8.2,3,12.33s1.82,8.26,2.62,12.43,1.54,8.34,2.2,12.55,1.21,8.44,1.58,12.73c-2-3.81-3.83-7.67-5.55-11.56s-3.38-7.81-4.94-11.75-3.08-7.9-4.53-11.87-2.85-8-4.17-12l9.44,1c-.75,1.53-1.47,3.06-2.25,4.57l-2.3,4.55c-.75,1.52-1.56,3-2.34,4.52l-2.36,4.5-4.38,8.33-5.08-7.9-4.51-7c-1.47-2.36-3-4.72-4.41-7.09l9.33-1.15-2.45,6.29-2.54,6.26L315,39.37c-.91,2.06-1.79,4.14-2.73,6.19q-2.79,6.18-5.82,12.27C304.39,61.89,302.26,65.92,299.94,69.87Z"/><path class="cls-2" d="M545.42,5.38c3.59,2.39,7.1,4.89,10.56,7.43s6.87,5.15,10.25,7.78q10.15,7.9,19.92,16.23l3.53,3-4.07,2.44c-5.74,3.44-11.5,6.83-17.32,10.11S556.62,58.88,550.7,62s-11.87,6.17-17.9,9.09-12.12,5.74-18.37,8.29c5.34-4.13,10.83-8,16.38-11.74S542,60.26,547.66,56.71s11.39-7,17.16-10.37,11.59-6.67,17.44-9.91l-.55,5.42c-6.3-5.79-12.52-11.68-18.59-17.73q-4.56-4.55-9-9.2C551.16,11.81,548.25,8.64,545.42,5.38Z"/><path class="cls-2" d="M58.56,84.75a196.63,196.63,0,0,1,6-22.22q3.58-10.87,7.89-21.47t9.29-20.91A193.67,193.67,0,0,1,92.93,0a194,194,0,0,1-6,22.22Q83.31,33.11,79,43.69t-9.3,20.9A194.75,194.75,0,0,1,58.56,84.75Z"/><path class="cls-2" d="M48.43,80.38c-4.12-3-8.07-6.18-12-9.39S28.75,64.45,25,61.1s-7.47-6.78-11.14-10.23S6.55,43.91,3,40.36l-3-3L3.42,35c4-2.78,8-5.53,12-8.21s8.1-5.33,12.2-7.91,8.26-5.09,12.47-7.53,8.46-4.81,12.85-7C49.4,7.78,45.73,11,42,14.13s-7.48,6.21-11.28,9.22S23.1,29.3,19.21,32.19,11.4,37.93,7.45,40.73l.44-5.34q5.39,5.31,10.64,10.74c3.49,3.64,7,7.29,10.35,11s6.75,7.51,10,11.36S45.39,76.29,48.43,80.38Z"/></svg>